<?xml version="1.0" encoding="UTF-8"?>
<svg version="1.1" xmlns="http://www.w3.org/2000/svg" width="128" height="128">
<path d="M0 0 C1.11733772 -0.0098568 1.11733772 -0.0098568 2.25724792 -0.01991272 C4.72700089 -0.03965462 7.19669307 -0.05130943 9.66650391 -0.0612793 C10.50918446 -0.06535482 11.35186501 -0.06943035 12.22008133 -0.07362938 C16.67910772 -0.09449261 21.13810331 -0.10879396 25.59716797 -0.11816406 C30.20649775 -0.1292371 34.8153459 -0.16364625 39.42450523 -0.20333576 C42.96581938 -0.22945754 46.50701793 -0.23785186 50.04841995 -0.24144554 C51.74770999 -0.24632199 53.44699451 -0.25796604 55.14619064 -0.27648354 C57.52363228 -0.30078456 59.89981642 -0.29992727 62.27734375 -0.29296875 C62.97982742 -0.30577881 63.6823111 -0.31858887 64.40608215 -0.33178711 C67.4864454 -0.29890542 69.5342322 0.03960674 72.20388794 1.60823059 C74.60414123 5.55004544 74.32578083 9.2146081 74.28564453 13.74731445 C74.29265381 14.71683044 74.29966309 15.68634644 74.30688477 16.6852417 C74.32449495 19.8911195 74.31283093 23.09611512 74.29931641 26.30200195 C74.30201044 28.52872894 74.30589212 30.75545478 74.31091309 32.98217773 C74.31681225 37.64944659 74.30823144 42.31640929 74.28955078 46.98364258 C74.26676133 52.96953704 74.27988212 58.95471414 74.30384064 64.94058228 C74.31828712 69.53879207 74.31369784 74.13683149 74.30332947 78.73504639 C74.30065902 80.94228195 74.30394308 83.14953292 74.31324768 85.35675049 C74.32339403 88.44048096 74.30793825 91.52304591 74.28564453 94.60668945 C74.29374146 95.52109802 74.30183838 96.43550659 74.31018066 97.37762451 C74.22799318 103.50660912 74.22799318 103.50660912 72.00506592 106.74676514 C69.54514939 108.31952506 68.34842463 108.66592193 65.45849609 108.63110352 C64.19764191 108.63065033 64.19764191 108.63065033 62.91131592 108.63018799 C62.01326233 108.60954285 61.11520874 108.58889771 60.18994141 108.56762695 C59.26336731 108.56196716 58.33679321 108.55630737 57.38214111 108.55047607 C54.42692079 108.52811117 51.47291935 108.47791457 48.51806641 108.42700195 C46.5128756 108.4069371 44.50766576 108.3886863 42.50244141 108.37231445 C37.59051446 108.32824595 32.67949699 108.2592175 27.76806641 108.17700195 C27.76806641 106.85700195 27.76806641 105.53700195 27.76806641 104.17700195 C28.90348877 104.16241943 30.03891113 104.14783691 31.20874023 104.1328125 C35.41902249 104.0748652 39.6287679 103.99763254 43.83862305 103.91455078 C45.6611256 103.88128455 47.4837316 103.85325789 49.30639648 103.83056641 C51.9255789 103.79705114 54.54381188 103.74473844 57.16259766 103.6887207 C57.97831741 103.68233078 58.79403717 103.67594086 59.63447571 103.6693573 C63.76675169 103.64457889 63.76675169 103.64457889 67.46440125 102.03669739 C69.31647254 99.39469342 69.28382222 97.18394375 69.45556641 93.98950195 C69.52130859 92.90282227 69.58705078 91.81614258 69.65478516 90.6965332 C69.69216797 89.86508789 69.72955078 89.03364258 69.76806641 88.17700195 C60.46664292 88.26143083 51.16540193 88.35632408 41.86422443 88.46452904 C37.54517636 88.51444674 33.2261522 88.56077715 28.90698242 88.59887695 C24.73771543 88.63578699 20.56865077 88.68216241 16.39955711 88.73506546 C14.81001528 88.75357904 13.22043011 88.7686982 11.63082314 88.78034592 C9.40202804 88.79726055 7.17369327 88.82630745 4.94506836 88.8581543 C3.67709915 88.87147797 2.40912994 88.88480164 1.10273743 88.89852905 C-2.12834448 89.1683514 -4.36961384 89.68070906 -7.23193359 91.17700195 C-8.63128373 93.97570222 -8.48458764 96.08198987 -8.23193359 99.17700195 C-6.22506581 102.13449132 -3.53347222 103.0170019 -0.23193359 104.17700195 C-0.23193359 105.49700195 -0.23193359 106.81700195 -0.23193359 108.17700195 C-6.21848068 108.77565666 -6.21848068 108.77565666 -8.99755859 107.1340332 C-11.16703835 105.3384201 -12.96265324 103.71556267 -14.23193359 101.17700195 C-14.35148493 98.24940465 -14.41033749 95.34489304 -14.42480469 92.41625977 C-14.43707092 91.05502487 -14.43707092 91.05502487 -14.44958496 89.66629028 C-14.47445692 86.6542426 -14.49096014 83.64224212 -14.50537109 80.63012695 C-14.51069477 79.60238914 -14.51601845 78.57465134 -14.52150345 77.51576996 C-14.54824364 72.07538091 -14.56761524 66.63501488 -14.58203125 61.19458008 C-14.59867566 55.57425059 -14.64344953 49.95450786 -14.69440269 44.33440018 C-14.72805637 40.01409225 -14.73960669 35.69392386 -14.74525833 31.37349701 C-14.75197663 29.30184193 -14.76721366 27.23019621 -14.79114914 25.15866852 C-14.822761 22.25706681 -14.82284322 19.3570509 -14.81542969 16.45532227 C-14.84003769 15.17393875 -14.84003769 15.17393875 -14.86514282 13.8666687 C-14.82120361 9.6605798 -14.51152199 6.99240205 -11.82046509 3.65960693 C-7.89256249 -0.10756011 -5.20577558 0.01981202 0 0 Z M19.76806641 24.17700195 C19.43806641 24.83700195 19.10806641 25.49700195 18.76806641 26.17700195 C16.84228516 26.52075195 16.84228516 26.52075195 14.45556641 26.67700195 C11.06967196 26.90086274 8.68925872 27.40544016 5.76806641 29.17700195 C2.94209827 32.60853468 2.17728966 35.71799586 2.34619141 40.17700195 C3.12557087 43.87183795 5.02756876 45.62335642 7.76806641 48.17700195 C9.08806641 48.50700195 10.40806641 48.83700195 11.76806641 49.17700195 C11.76806641 52.14700195 11.76806641 55.11700195 11.76806641 58.17700195 C23.64806641 58.17700195 35.52806641 58.17700195 47.76806641 58.17700195 C47.76806641 55.20700195 47.76806641 52.23700195 47.76806641 49.17700195 C48.51056641 48.95012695 49.25306641 48.72325195 50.01806641 48.48950195 C53.46464054 46.84454612 54.83207024 45.47536579 56.76806641 42.17700195 C57.51806099 37.03218637 57.51806099 37.03218637 55.70947266 32.36450195 C53.942498 30.18331068 52.29502326 28.44048038 49.76806641 27.17700195 C48.22782645 27.10749654 46.68471653 27.09247838 45.14306641 27.11450195 C44.32580078 27.12352539 43.50853516 27.13254883 42.66650391 27.1418457 C42.04001953 27.15344727 41.41353516 27.16504883 40.76806641 27.17700195 C40.48189453 26.5634082 40.19572266 25.94981445 39.90087891 25.31762695 C38.30007974 22.29266853 36.69503245 20.95863346 33.76806641 19.17700195 C27.06341068 18.21919399 24.44946667 19.38142119 19.76806641 24.17700195 Z M11.76806641 62.17700195 C11.76806641 64.15700195 11.76806641 66.13700195 11.76806641 68.17700195 C14.67248299 71.08141854 16.83564486 70.43567931 20.89306641 70.44262695 C21.9471167 70.44549713 21.9471167 70.44549713 23.02246094 70.44842529 C24.50862994 70.44978671 25.99481085 70.44609328 27.48095703 70.43774414 C29.75922286 70.42704349 32.03670018 70.43764035 34.31494141 70.45043945 C35.75765148 70.44911785 37.20036107 70.44655544 38.64306641 70.44262695 C39.96048828 70.44037109 41.27791016 70.43811523 42.63525391 70.43579102 C45.8674077 70.50865634 45.8674077 70.50865634 47.76806641 68.17700195 C47.76806641 66.19700195 47.76806641 64.21700195 47.76806641 62.17700195 C35.88806641 62.17700195 24.00806641 62.17700195 11.76806641 62.17700195 Z " fill="#FFC106" transform="translate(34.23193359375,3.822998046875)"/>
<path d="M0 0 C6.6 0 13.2 0 20 0 C20 5.94 20 11.88 20 18 C14.97862202 16.9957244 14.13756581 16.60239038 11 13 C8.76509481 14.00185405 7.17430711 14.8111673 5.5 16.625 C4 18 4 18 0 18 C0 12.06 0 6.12 0 0 Z " fill="#FFC106" transform="translate(38,106)"/>
<path d="M0 0 C21.78 0 43.56 0 66 0 C66 1.32 66 2.64 66 4 C44.22 4 22.44 4 0 4 C0 2.68 0 1.36 0 0 Z " fill="#FFC106" transform="translate(32,98)"/>
</svg>
