<?xml version="1.0" encoding="UTF-8"?>
<svg version="1.1" xmlns="http://www.w3.org/2000/svg" width="128" height="128">
<path d="M0 0 C1.53020456 -0.00457123 3.06040708 -0.00987957 4.59060669 -0.0158844 C7.78623838 -0.02477947 10.9816197 -0.02243443 14.17724609 -0.01245117 C18.24435107 -0.0009748 22.31058602 -0.02117024 26.37757683 -0.05036831 C29.53489547 -0.06883925 32.69200986 -0.06841622 35.84936905 -0.06273079 C37.34747664 -0.06257885 38.84559923 -0.06851587 40.34365463 -0.08102226 C51.85470889 -0.16359272 62.1488375 1.11054329 71.34765625 8.609375 C80.1588921 17.30884042 83.46467128 26.53347126 83.62629318 38.74033833 C83.63814534 40.9064459 83.63460714 43.07215328 83.62890625 45.23828125 C83.63347748 46.76848581 83.63878582 48.29868833 83.64479065 49.82888794 C83.65368572 53.02451963 83.65134068 56.21990095 83.64135742 59.41552734 C83.62988105 63.48263232 83.65007649 67.54886727 83.67927456 71.61585808 C83.6977455 74.77317672 83.69732247 77.93029111 83.69163704 81.0876503 C83.6914851 82.58575789 83.69742212 84.08388048 83.70992851 85.58193588 C83.79249897 97.09299014 82.51836296 107.38711875 75.01953125 116.5859375 C66.32006583 125.39717335 57.09543499 128.70295253 44.88856792 128.86457443 C42.72246035 128.87642659 40.55675297 128.87288839 38.390625 128.8671875 C36.86042044 128.87175873 35.33021792 128.87706707 33.80001831 128.8830719 C30.60438662 128.89196697 27.4090053 128.88962193 24.21337891 128.87963867 C20.14627393 128.8681623 16.08003898 128.88835774 12.01304817 128.91755581 C8.85572953 128.93602675 5.69861514 128.93560372 2.54125595 128.92991829 C1.04314836 128.92976635 -0.45497423 128.93570337 -1.95302963 128.94820976 C-13.46408389 129.03078022 -23.7582125 127.75664421 -32.95703125 120.2578125 C-41.7682671 111.55834708 -45.07404628 102.33371624 -45.23566818 90.12684917 C-45.24752034 87.9607416 -45.24398214 85.79503422 -45.23828125 83.62890625 C-45.24285248 82.09870169 -45.24816082 80.56849917 -45.25416565 79.03829956 C-45.26306072 75.84266787 -45.26071568 72.64728655 -45.25073242 69.45166016 C-45.23925605 65.38455518 -45.25945149 61.31832023 -45.28864956 57.25132942 C-45.3071205 54.09401078 -45.30669747 50.93689639 -45.30101204 47.7795372 C-45.3008601 46.28142961 -45.30679712 44.78330702 -45.31930351 43.28525162 C-45.40187397 31.77419736 -44.12773796 21.48006875 -36.62890625 12.28125 C-25.89856263 1.41304329 -14.62069545 -0.03847927 0 0 Z " fill="#FFC108" transform="translate(44.8046875,-0.43359375)"/>
<path d="M0 0 C2.0927312 1.57494204 2.89539673 2.48041728 3.41650391 5.06884766 C3.43632324 5.84276855 3.45614258 6.61668945 3.4765625 7.4140625 C3.5075 8.25710937 3.5384375 9.10015625 3.5703125 9.96875 C3.59738281 11.28359375 3.59738281 11.28359375 3.625 12.625 C3.67579607 14.3673053 3.73028153 16.10950831 3.7890625 17.8515625 C3.80662598 18.62322754 3.82418945 19.39489258 3.84228516 20.18994141 C3.80633412 22.02068691 3.80633412 22.02068691 5 23 C6.68255235 23.0987517 8.36924028 23.12798904 10.0546875 23.12939453 C11.13250488 23.13254669 12.21032227 23.13569885 13.32080078 23.13894653 C14.49368652 23.1369223 15.66657227 23.13489807 16.875 23.1328125 C18.0697998 23.13376923 19.26459961 23.13472595 20.49560547 23.13571167 C23.0276698 23.13639371 25.55973588 23.13453778 28.09179688 23.13037109 C31.9831126 23.12502321 35.87431289 23.13031533 39.765625 23.13671875 C42.21875026 23.13605797 44.67187544 23.13477682 47.125 23.1328125 C48.29788574 23.13483673 49.47077148 23.13686096 50.67919922 23.13894653 C52.29592529 23.13421829 52.29592529 23.13421829 53.9453125 23.12939453 C55.37641357 23.12820114 55.37641357 23.12820114 56.83642578 23.12698364 C58.97987889 23.24160848 58.97987889 23.24160848 60 22 C60.12018813 20.62062729 60.17943151 19.23580295 60.2109375 17.8515625 C60.23929687 17.01109375 60.26765625 16.170625 60.296875 15.3046875 C60.34872459 13.52624646 60.39306474 11.74756974 60.4296875 9.96875 C60.460625 9.12570313 60.4915625 8.28265625 60.5234375 7.4140625 C60.54325684 6.6401416 60.56307617 5.8662207 60.58349609 5.06884766 C61.10460327 2.48041728 61.9072688 1.57494204 64 0 C69.10665092 -0.63833137 69.10665092 -0.63833137 71.66259766 1.18798828 C73.48375085 3.65542147 73.3876674 5.31822343 73.3984375 8.3671875 C73.40230469 9.41777344 73.40617187 10.46835938 73.41015625 11.55078125 C73.39855469 12.64777344 73.38695313 13.74476562 73.375 14.875 C73.38660156 15.96425781 73.39820312 17.05351563 73.41015625 18.17578125 C73.40628906 19.22894531 73.40242188 20.28210938 73.3984375 21.3671875 C73.39505371 22.32737793 73.39166992 23.28756836 73.38818359 24.27685547 C72.75639206 28.70893265 70.41686806 32.15260995 67 35 C63.72702274 36.09099242 61.25014722 36.16018608 57.80371094 36.20874023 C55.88591827 36.23767616 55.88591827 36.23767616 53.92938232 36.26719666 C52.53105687 36.28200489 51.13272013 36.29577815 49.734375 36.30859375 C49.02874672 36.31516558 48.32311844 36.3217374 47.59610748 36.32850838 C43.85982772 36.36107522 40.12357612 36.38553074 36.38720703 36.4050293 C33.3024729 36.42282725 30.21865559 36.45762388 27.13427734 36.50756836 C23.4024422 36.56791802 19.67145543 36.59852436 15.93915558 36.60820198 C14.52138642 36.6167338 13.10363855 36.63549624 11.6861496 36.6649456 C-0.77334792 36.90983201 -0.77334792 36.90983201 -5.36230469 33.14868164 C-10.28634424 28.10852392 -9.21928724 21.58788759 -9.25 15 C-9.270625 13.89398438 -9.29125 12.78796875 -9.3125 11.6484375 C-9.31765625 10.58882812 -9.3228125 9.52921875 -9.328125 8.4375 C-9.3374707 7.46683594 -9.34681641 6.49617188 -9.35644531 5.49609375 C-9 3 -9 3 -7.66699219 1.18359375 C-5.07579433 -0.65620227 -3.08159238 -0.38519905 0 0 Z " fill="#FFFEFD" transform="translate(32,68)"/>
<path d="M0 0 C4.12934321 1.38598432 6.67595176 3.45685848 9.67602539 6.49121094 C10.22339355 7.0280954 10.77076172 7.56497986 11.3347168 8.11813354 C12.48156254 9.25218774 13.62079771 10.39398486 14.75268555 11.54296875 C16.4876041 13.29496807 18.25667172 15.00631999 20.03149414 16.71777344 C21.14443288 17.82748899 22.2551895 18.93939824 23.36352539 20.05371094 C23.89357178 20.56128937 24.42361816 21.0688678 24.96972656 21.59182739 C27.7670104 24.49890686 28.48782696 25.83499629 28.49633789 29.92822266 C27.48852539 33.17089844 27.48852539 33.17089844 24.48852539 35.17089844 C20.20435756 35.08591494 18.03486658 34.59236164 14.61743164 31.95605469 C13.77051758 31.05757812 12.92360352 30.15910156 12.05102539 29.23339844 C10.75358398 27.88955078 10.75358398 27.88955078 9.42993164 26.51855469 C7.48852539 24.17089844 7.48852539 24.17089844 7.48852539 22.17089844 C6.82852539 22.17089844 6.16852539 22.17089844 5.48852539 22.17089844 C5.50947266 23.21544189 5.53041992 24.25998535 5.55200195 25.33618164 C5.62438688 29.21055397 5.67031901 33.08486654 5.70825195 36.9597168 C5.72837104 38.63690236 5.7556699 40.31401775 5.7902832 41.9909668 C5.83879108 44.40138043 5.86149003 46.81086716 5.87915039 49.22167969 C5.89979553 49.97177811 5.92044067 50.72187653 5.94171143 51.4947052 C5.94395163 56.68881223 5.94395163 56.68881223 3.62426758 59.14428711 C0.98487391 60.41299428 -0.61731734 60.6161534 -3.51147461 60.17089844 C-5.14550781 59.14428711 -5.14550781 59.14428711 -6.51147461 57.17089844 C-6.77303722 54.44183482 -6.86068591 51.94628854 -6.80444336 49.22167969 C-6.80019852 48.44906296 -6.79595367 47.67644623 -6.7915802 46.88041687 C-6.77479644 44.41438852 -6.73714608 41.94917948 -6.69897461 39.48339844 C-6.68392732 37.8108842 -6.67023899 36.13835715 -6.65795898 34.46582031 C-6.62489407 30.36719766 -6.57311489 26.26918693 -6.51147461 22.17089844 C-7.17147461 22.17089844 -7.83147461 22.17089844 -8.51147461 22.17089844 C-8.89239258 23.03134766 -8.89239258 23.03134766 -9.28100586 23.90917969 C-12.1975807 29.270122 -16.4798559 33.4936922 -22.26147461 35.42089844 C-25.51147461 35.17089844 -25.51147461 35.17089844 -27.94897461 33.54589844 C-29.8660361 30.63196498 -30.06035712 29.60623562 -29.51147461 26.17089844 C-27.76407541 23.89014973 -26.08698694 21.97426046 -24.07006836 19.95996094 C-23.50957291 19.38756683 -22.94907745 18.81517273 -22.37159729 18.22543335 C-21.1833787 17.02068555 -19.98852289 15.82245299 -18.78759766 14.63037109 C-16.95648405 12.80339093 -15.16273413 10.94455832 -13.36889648 9.08105469 C-12.20890454 7.91358242 -11.04685934 6.74814593 -9.88256836 5.58496094 C-9.3499791 5.02676666 -8.81738983 4.46857239 -8.2686615 3.89346313 C-5.4692575 1.17768533 -3.93814721 0.19166398 0 0 Z " fill="#FFFDFA" transform="translate(64.511474609375,23.8291015625)"/>
</svg>
