<?xml version="1.0" encoding="UTF-8"?>
<svg version="1.1" xmlns="http://www.w3.org/2000/svg" width="128" height="128">
<path d="M0 0 C12.16754622 8.62534937 19.32586176 19.52796882 22.95703125 34.00390625 C25.4945619 50.27256067 21.58654194 63.63012625 13.375 77.68359375 C12.69667922 79.01103608 12.02551015 80.34230378 11.375 81.68359375 C12.37159804 82.87102971 13.39868635 84.03290786 14.4375 85.18359375 C15.00597656 85.83328125 15.57445313 86.48296875 16.16015625 87.15234375 C18.36441875 89.03224091 18.36441875 89.03224091 21.53515625 88.34765625 C27.71408667 88.88823409 30.65625714 93.18618444 34.75 97.55859375 C35.56855469 98.40035156 36.38710937 99.24210937 37.23046875 100.109375 C44.29554756 107.43221788 44.29554756 107.43221788 44.625 112.62109375 C44.57120396 115.09122871 44.48852032 116.45655312 43.375 118.68359375 C39.98715998 120.37751376 36.98364995 120.55802249 33.375 119.68359375 C30.27418188 117.7882912 27.91718669 115.26036801 25.375 112.68359375 C24.32113234 111.71630829 23.26358108 110.75302662 22.203125 109.79296875 C21.09247239 108.7578796 19.98309715 107.72141815 18.875 106.68359375 C18.33391602 106.19793945 17.79283203 105.71228516 17.23535156 105.21191406 C14.33948046 102.41300709 13.3909471 101.14655814 13.25 97.0546875 C13.29125 95.94222656 13.3325 94.82976562 13.375 93.68359375 C11.93353873 91.40563145 11.93353873 91.40563145 9.875 89.74609375 C9.2253125 89.15957031 8.575625 88.57304688 7.90625 87.96875 C7.4009375 87.54464844 6.895625 87.12054688 6.375 86.68359375 C4.20930978 87.7339285 2.11424901 88.83595243 0.03515625 90.05078125 C-13.88623982 98.1314713 -28.61691314 101.3710584 -44.4375 97.55859375 C-59.75573509 92.54535317 -71.04686402 84.03368103 -78.625 69.68359375 C-85.04440743 55.74878251 -86.32479519 39.11913473 -80.94921875 24.5390625 C-74.1145172 9.80110724 -63.10994906 -1.09079437 -47.75 -6.75390625 C-31.35659175 -11.2782519 -14.28123969 -9.17752743 0 0 Z M-47.625 16.68359375 C-47.955 18.33359375 -48.285 19.98359375 -48.625 21.68359375 C-50.275 22.01359375 -51.925 22.34359375 -53.625 22.68359375 C-53.295 23.67359375 -52.965 24.66359375 -52.625 25.68359375 C-51.305 25.68359375 -49.985 25.68359375 -48.625 25.68359375 C-48.295 27.33359375 -47.965 28.98359375 -47.625 30.68359375 C-46.635 30.68359375 -45.645 30.68359375 -44.625 30.68359375 C-44.295 29.03359375 -43.965 27.38359375 -43.625 25.68359375 C-41.975 25.35359375 -40.325 25.02359375 -38.625 24.68359375 C-38.955 23.69359375 -39.285 22.70359375 -39.625 21.68359375 C-40.945 21.68359375 -42.265 21.68359375 -43.625 21.68359375 C-43.955 20.03359375 -44.285 18.38359375 -44.625 16.68359375 C-45.615 16.68359375 -46.605 16.68359375 -47.625 16.68359375 Z M-22.625 16.68359375 C-23.62919637 19.14028845 -24.62850501 21.59877728 -25.625 24.05859375 C-26.05425781 25.10660156 -26.05425781 25.10660156 -26.4921875 26.17578125 C-28.07024399 29.81245336 -28.07024399 29.81245336 -28.625 33.68359375 C-29.27726562 33.87695312 -29.92953125 34.0703125 -30.6015625 34.26953125 C-35.3021398 35.66999823 -39.98340891 37.09568101 -44.625 38.68359375 C-44.625 39.34359375 -44.625 40.00359375 -44.625 40.68359375 C-42.33467689 41.52078758 -40.04289043 42.35348665 -37.75 43.18359375 C-36.77353516 43.54130859 -36.77353516 43.54130859 -35.77734375 43.90625 C-32.29042411 45.23236908 -32.29042411 45.23236908 -28.625 45.68359375 C-28.44324219 46.32425781 -28.26148437 46.96492188 -28.07421875 47.625 C-26.56229955 52.82755272 -24.87499329 57.75503702 -22.625 62.68359375 C-20.49112543 59.84874899 -20.49112543 59.84874899 -19.8984375 56.7578125 C-17.56727954 47.97036054 -17.56727954 47.97036054 -13.82666016 45.4921875 C-9.27102737 43.31928807 -4.50201583 41.93866598 0.375 40.68359375 C0.375 40.02359375 0.375 39.36359375 0.375 38.68359375 C-0.71039063 38.43609375 -1.79578125 38.18859375 -2.9140625 37.93359375 C-14.00865384 34.90943955 -14.00865384 34.90943955 -16.97167969 30.82910156 C-19.22246625 26.32125883 -20.50848401 21.57998157 -21.625 16.68359375 C-21.955 16.68359375 -22.285 16.68359375 -22.625 16.68359375 Z M-46.625 50.68359375 C-46.955 51.94171875 -47.285 53.19984375 -47.625 54.49609375 C-48.60161861 57.18774992 -49.12994872 58.38382897 -51.60546875 59.8828125 C-53.8125 60.68359375 -53.8125 60.68359375 -57.625 61.68359375 C-54.9394406 64.36915315 -52.24878672 64.74409349 -48.625 65.68359375 C-48.50125 66.63234375 -48.3775 67.58109375 -48.25 68.55859375 C-47.90812823 71.77026566 -47.90812823 71.77026566 -45.625 73.68359375 C-45.13 71.79640625 -45.13 71.79640625 -44.625 69.87109375 C-43.64838139 67.17943758 -43.12005128 65.98335853 -40.64453125 64.484375 C-38.4375 63.68359375 -38.4375 63.68359375 -34.625 62.68359375 C-37.81262365 60.55851131 -39.89012223 60.18157745 -43.625 59.68359375 C-44.285 56.71359375 -44.945 53.74359375 -45.625 50.68359375 C-45.955 50.68359375 -46.285 50.68359375 -46.625 50.68359375 Z " fill="#FFC106" transform="translate(83.625,8.31640625)"/>
</svg>
